<?xml version="1.0" encoding="UTF-8" standalone="no"?>
<!-- Created with Inkscape (http://www.inkscape.org/) -->

<svg
   xmlns:dc="http://purl.org/dc/elements/1.1/"
   xmlns:cc="http://creativecommons.org/ns#"
   xmlns:rdf="http://www.w3.org/1999/02/22-rdf-syntax-ns#"
   xmlns:svg="http://www.w3.org/2000/svg"
   xmlns="http://www.w3.org/2000/svg"
   xmlns:sodipodi="http://sodipodi.sourceforge.net/DTD/sodipodi-0.dtd"
   xmlns:inkscape="http://www.inkscape.org/namespaces/inkscape"
   width="152"
   height="48"
   viewBox="0 0 40.216632 12.7"
   version="1.1"
   id="svg8"
   inkscape:version="0.92.4 (unknown)"
   sodipodi:docname="misologo-AV-AM-MT4.svg"
   inkscape:export-filename="/home/amasella/bitmap.png"
   inkscape:export-xdpi="96"
   inkscape:export-ydpi="96">
  <defs
     id="defs2" />
  <sodipodi:namedview
     id="base"
     pagecolor="#ffffff"
     bordercolor="#666666"
     borderopacity="1.0"
     inkscape:pageopacity="0.0"
     inkscape:pageshadow="2"
     inkscape:zoom="6.707237"
     inkscape:cx="64.106351"
     inkscape:cy="29.812753"
     inkscape:document-units="mm"
     inkscape:current-layer="layer1"
     showgrid="false"
     units="px"
     inkscape:window-width="1855"
     inkscape:window-height="1176"
     inkscape:window-x="65"
     inkscape:window-y="24"
     inkscape:window-maximized="1" />
  <metadata
     id="metadata5">
    <rdf:RDF>
      <cc:Work
         rdf:about="">
        <dc:format>image/svg+xml</dc:format>
        <dc:type
           rdf:resource="http://purl.org/dc/dcmitype/StillImage" />
        <dc:title></dc:title>
      </cc:Work>
    </rdf:RDF>
  </metadata>
  <g
     inkscape:label="Layer 1"
     inkscape:groupmode="layer"
     id="layer1"
     transform="translate(0,-284.30001)">
    <g
       id="g4030"
       transform="matrix(0.92973201,0,0,0.92973201,-2.5468047,20.775908)">
      <ellipse
         ry="4.0700459"
         rx="4.0988483"
         cy="292.19012"
         cx="33.95789"
         id="path815"
         style="fill:#6666d8;fill-opacity:1;stroke:none;stroke-width:0.0995586;stroke-linecap:butt;stroke-linejoin:round;stroke-miterlimit:4;stroke-dasharray:none;stroke-dashoffset:0;stroke-opacity:0.65777779" />
      <g
         transform="matrix(1.3885464,0,0,1.3787889,-12.874395,-110.18516)"
         id="g4107">
        <circle
           style="fill:#ffe778;fill-opacity:1;stroke:none;stroke-width:0.05862094;stroke-linecap:butt;stroke-linejoin:round;stroke-miterlimit:4;stroke-dasharray:none;stroke-dashoffset:0;stroke-opacity:0.65777779"
           id="circle817-3"
           cx="33.727562"
           cy="291.8324"
           r="2.4049425" />
        <path
           inkscape:connector-curvature="0"
           id="rect823"
           d="m 32.574195,290.37274 -0.519122,1.18898 0.164122,0.0716 1.385533,-0.26331 0.200703,-0.45973 z"
           style="fill:#fefee3;fill-opacity:1;stroke:none;stroke-width:1.1552304;stroke-linecap:butt;stroke-linejoin:round;stroke-miterlimit:4;stroke-dasharray:none;stroke-dashoffset:0;stroke-opacity:0.65777779" />
        <path
           inkscape:connector-curvature="0"
           id="rect836"
           d="m 32.152518,292.40706 0.265134,0.72221 0.66489,-1.06339 z"
           style="fill:#fefee3;fill-opacity:1;stroke:none;stroke-width:1.57402825;stroke-linecap:butt;stroke-linejoin:round;stroke-miterlimit:4;stroke-dasharray:none;stroke-dashoffset:0;stroke-opacity:0.65777779" />
        <path
           inkscape:connector-curvature="0"
           id="rect832"
           d="m 35.566987,291.99231 -0.997014,-0.24469 -0.07725,0.3147 0.404944,0.88907 0.409223,0.1003 z"
           style="fill:#fefee3;fill-opacity:1;stroke:none;stroke-width:1.57402825;stroke-linecap:butt;stroke-linejoin:round;stroke-miterlimit:4;stroke-dasharray:none;stroke-dashoffset:0;stroke-opacity:0.65777779" />
        <path
           inkscape:connector-curvature="0"
           id="rect834"
           d="m 35.205348,290.57822 -0.935344,-0.42351 -0.06128,0.13541 0.812746,0.69382 z"
           style="fill:#fefee3;fill-opacity:1;stroke:none;stroke-width:1.57402825;stroke-linecap:butt;stroke-linejoin:round;stroke-miterlimit:4;stroke-dasharray:none;stroke-dashoffset:0;stroke-opacity:0.65777779" />
        <path
           sodipodi:nodetypes="sssss"
           inkscape:connector-curvature="0"
           id="path849"
           d="m 32.850246,293.28694 c -0.0011,-0.10225 0.06264,-0.2415 0.163268,-0.25974 0.128524,-0.0232 0.269272,0.0879 0.311694,0.23748 0.07797,0.27484 -0.149573,0.29842 -0.28943,0.30428 -0.110123,0.006 -0.184364,-0.16949 -0.185532,-0.28202 z"
           style="fill:none;fill-rule:evenodd;stroke:#abc837;stroke-width:0.14024457;stroke-linecap:butt;stroke-linejoin:miter;stroke-miterlimit:4;stroke-dasharray:none;stroke-opacity:1" />
        <path
           sodipodi:nodetypes="cccccc"
           inkscape:connector-curvature="0"
           id="path851"
           d="m 33.991471,292.1974 c -0.02964,-0.0246 -0.06248,-0.044 -0.09569,-0.0547 -0.0167,-0.006 -0.0335,-0.009 -0.04994,-0.009 -0.102167,-0.005 -0.205919,0.11522 -0.216445,0.21693 -0.01134,0.10963 0.0726,0.25459 0.18054,0.27694 0.02738,0.006 0.05473,0.0103 0.08163,0.0104"
           style="fill:none;fill-rule:evenodd;stroke:#abc837;stroke-width:0.14024457;stroke-linecap:butt;stroke-linejoin:miter;stroke-miterlimit:4;stroke-dasharray:none;stroke-opacity:1" />
        <path
           sodipodi:nodetypes="aasaa"
           inkscape:connector-curvature="0"
           id="path853"
           d="m 34.089599,291.29064 c -0.01225,-0.10154 0.06264,-0.24152 0.163268,-0.25976 0.128525,-0.0232 0.293534,0.0183 0.311694,0.23749 0.0095,0.11511 -0.122011,0.24966 -0.237481,0.25232 -0.110184,0.003 -0.224281,-0.12064 -0.237481,-0.23005 z"
           style="fill:none;fill-rule:evenodd;stroke:#abc837;stroke-width:0.14024457;stroke-linecap:butt;stroke-linejoin:miter;stroke-miterlimit:4;stroke-dasharray:none;stroke-opacity:1" />
        <path
           sodipodi:nodetypes="cccscc"
           inkscape:connector-curvature="0"
           id="path855"
           d="m 32.309183,291.93794 c 5.63e-4,-0.0237 -0.0013,-0.0468 -0.0079,-0.0677 -0.03056,-0.097 -0.161595,-0.15312 -0.263294,-0.1542 -0.06529,-6.8e-4 -0.120296,0.009 -0.163439,0.0267 -0.12945,0.0528 -0.151251,0.17641 -0.01637,0.30026 0.01167,0.0107 0.02526,0.0224 0.03815,0.0339"
           style="fill:none;fill-rule:evenodd;stroke:#abc837;stroke-width:0.14024457;stroke-linecap:butt;stroke-linejoin:miter;stroke-miterlimit:4;stroke-dasharray:none;stroke-opacity:1" />
        <path
           sodipodi:nodetypes="ccscc"
           inkscape:connector-curvature="0"
           id="path857"
           d="m 35.421987,291.61168 c 0.07908,-0.0596 0.138299,-0.16105 0.127324,-0.24763 -0.0064,-0.0507 -0.04375,-0.0967 -0.09207,-0.12905 -0.04832,-0.0324 -0.107958,-0.0512 -0.158991,-0.0478 -0.0975,0.006 -0.20982,0.0917 -0.236237,0.18769"
           style="fill:none;fill-rule:evenodd;stroke:#abc837;stroke-width:0.14024457;stroke-linecap:butt;stroke-linejoin:miter;stroke-miterlimit:4;stroke-dasharray:none;stroke-opacity:1" />
      </g>
      <path
         sodipodi:nodetypes="cccc"
         inkscape:connector-curvature="0"
         id="path819"
         d="m 39.328568,295.48138 c -2.59573,-1.69612 -8.808726,-5.55081 -10.637898,-7.11419 2.326204,0.98163 8.282494,5.14036 10.909921,6.76118 z"
         style="fill:#000000;fill-opacity:1;fill-rule:evenodd;stroke:none;stroke-width:0.01401973px;stroke-linecap:butt;stroke-linejoin:miter;stroke-opacity:1" />
      <path
         sodipodi:nodetypes="cccc"
         inkscape:connector-curvature="0"
         id="path819-3"
         d="m 38.95308,296.01306 c -2.59573,-1.69612 -8.808726,-5.55081 -10.637898,-7.11418 2.326204,0.98162 8.282494,5.14035 10.909921,6.76117 z"
         style="fill:#000000;fill-opacity:1;fill-rule:evenodd;stroke:none;stroke-width:0.01401973px;stroke-linecap:butt;stroke-linejoin:miter;stroke-opacity:1" />
    </g>
    <g
       transform="translate(4.2038514,9.5077071)"
       id="g4859">
      <text
         id="text891"
         y="286.43518"
         x="28.812897"
         style="font-style:normal;font-variant:normal;font-weight:normal;font-stretch:normal;font-size:14.11111069px;line-height:125%;font-family:Comfortaa;-inkscape-font-specification:'Comfortaa, Normal';font-variant-ligatures:normal;font-variant-caps:normal;font-variant-numeric:normal;font-feature-settings:normal;text-align:end;letter-spacing:0px;word-spacing:0px;writing-mode:lr-tb;text-anchor:end;fill:#6666d8;fill-opacity:1;stroke:none;stroke-width:0.26458332px;stroke-linecap:butt;stroke-linejoin:miter;stroke-opacity:1"
         xml:space="preserve"><tspan
           style="font-style:normal;font-variant:normal;font-weight:normal;font-stretch:normal;font-size:14.11111069px;font-family:Laksaman;-inkscape-font-specification:'Laksaman, Normal';font-variant-ligatures:normal;font-variant-caps:normal;font-variant-numeric:normal;font-feature-settings:normal;text-align:end;writing-mode:lr-tb;text-anchor:end;fill:#6666d8;fill-opacity:1;stroke-width:0.26458332px"
           y="286.43518"
           x="28.812897"
           id="tspan889"
           sodipodi:role="line">mis<tspan
   style="fill:#660423;fill-opacity:0"
   id="tspan4861">o</tspan></tspan></text>
    </g>
  </g>
</svg>
