<?xml version="1.0" encoding="iso-8859-1"?>
<!-- Generator: Adobe Illustrator 16.0.0, SVG Export Plug-In . SVG Version: 6.00 Build 0)  -->
<!DOCTYPE svg PUBLIC "-//W3C//DTD SVG 1.1//EN" "http://www.w3.org/Graphics/SVG/1.1/DTD/svg11.dtd">
<svg version="1.1" id="Capa_1" xmlns="http://www.w3.org/2000/svg" xmlns:xlink="http://www.w3.org/1999/xlink" x="0px" y="0px"
	 width="348.728px" height="348.728px" viewBox="0 0 348.728 348.728" style="enable-background:new 0 0 348.728 348.728;"
	 xml:space="preserve">
<g>
	<g>
		<g>
			<g>
				<path d="M201.977,297.183c-2.786,0-9.259-1.261-9.259-13v-53.882H14.388c-0.493,0.078-1.156,0.15-1.937,0.15
					c-3.173,0-6.101-1.201-8.245-3.404C1.415,224.195,0,219.835,0,214.094v-82.82c0-11.458,8.122-14.48,12.421-14.48h176.538V67.41
					c0-13.805,6.569-15.865,10.496-15.865c6.281,0,12.538,5.972,13.727,7.176c4.294,3.167,117.851,88.778,130.328,101.244
					c4.528,4.537,5.333,9.101,5.206,12.124c-0.3,7.274-5.908,12.223-6.539,12.775l-126.305,104.52
					C214.486,290.884,208.073,297.183,201.977,297.183z"/>
			</g>
		</g>
	</g>
</g>
<g>
</g>
<g>
</g>
<g>
</g>
<g>
</g>
<g>
</g>
<g>
</g>
<g>
</g>
<g>
</g>
<g>
</g>
<g>
</g>
<g>
</g>
<g>
</g>
<g>
</g>
<g>
</g>
<g>
</g>
</svg>
